<svg width="41" height="40" viewBox="0 0 41 40" fill="none" xmlns="http://www.w3.org/2000/svg">
<path d="M36.1216 36.0001V35.9989H36.1296V24.2629C36.1296 18.5217 34.8936 14.0989 28.1816 14.0989C24.9548 14.0989 22.7896 15.8697 21.9056 17.5481H21.8124V14.6349H15.4484V35.9989H22.0752V25.4201C22.0752 22.6349 22.6032 19.9413 26.0524 19.9413C29.4512 19.9413 29.5016 23.1201 29.5016 25.5985V36.0001H36.1216Z" fill="white"/>
<path d="M4.65761 14.636H11.2924V36H4.65761V14.636Z" fill="white"/>
<path d="M7.97241 4C5.85081 4 4.12961 5.7212 4.12961 7.8428C4.12961 9.9644 5.85081 11.7216 7.97241 11.7216C10.094 11.7216 11.8152 9.9644 11.8152 7.8428C11.8136 5.7212 10.0924 4 7.97241 4Z" fill="white"/>
</svg>
